<mxfile host="app.diagrams.net" agent="Mozilla/5.0 (Windows NT 10.0; Win64; x64) AppleWebKit/537.36 (KHTML, like Gecko) Chrome/130.0.0.0 Safari/537.36" version="24.8.6">
  <diagram name="Страница — 1" id="XNA35Zn9ggRNpW9TBCQM">
    <mxGraphModel dx="956" dy="576" grid="0" gridSize="10" guides="1" tooltips="1" connect="1" arrows="1" fold="1" page="0" pageScale="1" pageWidth="3300" pageHeight="4681" background="none" math="0" shadow="0">
      <root>
        <mxCell id="0" />
        <mxCell id="1" parent="0" />
        <mxCell id="yCH_jeW1r5G87xklTMlT-26" value="&lt;div style=&quot;box-sizing:border-box;width:100%;background:#e4e4e4;padding:2px;&quot;&gt;User&lt;/div&gt;&lt;table style=&quot;width:100%;font-size:1em;&quot; cellpadding=&quot;2&quot; cellspacing=&quot;0&quot;&gt;&lt;tbody&gt;&lt;tr&gt;&lt;td&gt;PK&lt;/td&gt;&lt;td&gt;ID&lt;/td&gt;&lt;/tr&gt;&lt;tr&gt;&lt;td&gt;&lt;br&gt;&lt;/td&gt;&lt;td&gt;Role(Enum: &quot;Driver&quot;, &quot;ParkingOwner&quot;)&lt;/td&gt;&lt;/tr&gt;&lt;tr&gt;&lt;td&gt;&lt;br&gt;&lt;/td&gt;&lt;td&gt;FIO&lt;br&gt;Password&lt;br&gt;Email&lt;br&gt;PhoneNumber&lt;br&gt;Documents&lt;/td&gt;&lt;/tr&gt;&lt;/tbody&gt;&lt;/table&gt;" style="verticalAlign=top;align=left;overflow=fill;html=1;whiteSpace=wrap;" vertex="1" parent="1">
          <mxGeometry x="288" y="82" width="238" height="136" as="geometry" />
        </mxCell>
        <mxCell id="yCH_jeW1r5G87xklTMlT-34" value="" style="edgeStyle=none;curved=1;rounded=0;orthogonalLoop=1;jettySize=auto;html=1;fontSize=12;startSize=8;endSize=8;endArrow=ERzeroToMany;endFill=0;startArrow=ERmandOne;startFill=0;" edge="1" parent="1" source="yCH_jeW1r5G87xklTMlT-27" target="yCH_jeW1r5G87xklTMlT-28">
          <mxGeometry relative="1" as="geometry" />
        </mxCell>
        <mxCell id="yCH_jeW1r5G87xklTMlT-27" value="&lt;div style=&quot;box-sizing:border-box;width:100%;background:#e4e4e4;padding:2px;&quot;&gt;Parking&lt;/div&gt;&lt;table style=&quot;width:100%;font-size:1em;&quot; cellpadding=&quot;2&quot; cellspacing=&quot;0&quot;&gt;&lt;tbody&gt;&lt;tr&gt;&lt;td&gt;PK&lt;/td&gt;&lt;td&gt;ID&lt;/td&gt;&lt;/tr&gt;&lt;tr&gt;&lt;td&gt;&lt;br&gt;&lt;/td&gt;&lt;td&gt;Adress&lt;/td&gt;&lt;/tr&gt;&lt;tr&gt;&lt;td&gt;&lt;/td&gt;&lt;td&gt;NumberOfFloors&lt;/td&gt;&lt;/tr&gt;&lt;/tbody&gt;&lt;/table&gt;" style="verticalAlign=top;align=left;overflow=fill;html=1;whiteSpace=wrap;" vertex="1" parent="1">
          <mxGeometry x="640" y="82" width="145" height="78" as="geometry" />
        </mxCell>
        <mxCell id="yCH_jeW1r5G87xklTMlT-28" value="&lt;div style=&quot;box-sizing:border-box;width:100%;background:#e4e4e4;padding:2px;&quot;&gt;Floor&lt;/div&gt;&lt;table style=&quot;width:100%;font-size:1em;&quot; cellpadding=&quot;2&quot; cellspacing=&quot;0&quot;&gt;&lt;tbody&gt;&lt;tr&gt;&lt;td&gt;PK&lt;/td&gt;&lt;td&gt;ID&lt;/td&gt;&lt;/tr&gt;&lt;tr&gt;&lt;td&gt;FK&lt;/td&gt;&lt;td&gt;Parking_ID&lt;/td&gt;&lt;/tr&gt;&lt;tr&gt;&lt;td&gt;&lt;/td&gt;&lt;td&gt;NumberOfParkingLots&lt;br&gt;Level&lt;/td&gt;&lt;/tr&gt;&lt;/tbody&gt;&lt;/table&gt;" style="verticalAlign=top;align=left;overflow=fill;html=1;whiteSpace=wrap;" vertex="1" parent="1">
          <mxGeometry x="902" y="76" width="180" height="90" as="geometry" />
        </mxCell>
        <mxCell id="yCH_jeW1r5G87xklTMlT-36" value="" style="edgeStyle=none;curved=1;rounded=0;orthogonalLoop=1;jettySize=auto;html=1;fontSize=12;startSize=8;endSize=8;endArrow=ERmany;endFill=0;startArrow=ERmandOne;startFill=0;" edge="1" parent="1" source="yCH_jeW1r5G87xklTMlT-29" target="yCH_jeW1r5G87xklTMlT-32">
          <mxGeometry relative="1" as="geometry" />
        </mxCell>
        <mxCell id="yCH_jeW1r5G87xklTMlT-29" value="&lt;div style=&quot;box-sizing:border-box;width:100%;background:#e4e4e4;padding:2px;&quot;&gt;ParkingLot&lt;/div&gt;&lt;table style=&quot;width:100%;font-size:1em;&quot; cellpadding=&quot;2&quot; cellspacing=&quot;0&quot;&gt;&lt;tbody&gt;&lt;tr&gt;&lt;td&gt;PK&lt;/td&gt;&lt;td&gt;ID&lt;/td&gt;&lt;/tr&gt;&lt;tr&gt;&lt;td&gt;FK&lt;/td&gt;&lt;td&gt;Floor_ID&lt;/td&gt;&lt;/tr&gt;&lt;tr&gt;&lt;td&gt;&lt;/td&gt;&lt;td&gt;IsForDisabled&lt;br&gt;IsFree&lt;/td&gt;&lt;/tr&gt;&lt;/tbody&gt;&lt;/table&gt;" style="verticalAlign=top;align=left;overflow=fill;html=1;whiteSpace=wrap;" vertex="1" parent="1">
          <mxGeometry x="902" y="266" width="180" height="90" as="geometry" />
        </mxCell>
        <mxCell id="yCH_jeW1r5G87xklTMlT-32" value="&lt;div style=&quot;box-sizing:border-box;width:100%;background:#e4e4e4;padding:2px;&quot;&gt;Booking&lt;/div&gt;&lt;table style=&quot;width:100%;font-size:1em;&quot; cellpadding=&quot;2&quot; cellspacing=&quot;0&quot;&gt;&lt;tbody&gt;&lt;tr&gt;&lt;td&gt;PK&lt;/td&gt;&lt;td&gt;uniqueId&lt;/td&gt;&lt;/tr&gt;&lt;tr&gt;&lt;td&gt;FK1&lt;/td&gt;&lt;td&gt;User_ID&lt;/td&gt;&lt;/tr&gt;&lt;tr&gt;&lt;td&gt;FK2&lt;br&gt;&lt;br&gt;&lt;/td&gt;&lt;td&gt;ParkingLot_ID&lt;br&gt;Price&lt;/td&gt;&lt;/tr&gt;&lt;/tbody&gt;&lt;/table&gt;" style="verticalAlign=top;align=left;overflow=fill;html=1;whiteSpace=wrap;" vertex="1" parent="1">
          <mxGeometry x="598" y="265" width="180" height="91" as="geometry" />
        </mxCell>
        <mxCell id="yCH_jeW1r5G87xklTMlT-33" value="" style="endArrow=ERoneToMany;html=1;rounded=0;fontSize=12;startSize=8;endSize=8;curved=1;exitX=0.998;exitY=0.329;exitDx=0;exitDy=0;entryX=0.004;entryY=0.579;entryDx=0;entryDy=0;exitPerimeter=0;startArrow=ERmandOne;startFill=0;endFill=0;entryPerimeter=0;" edge="1" parent="1" source="yCH_jeW1r5G87xklTMlT-26" target="yCH_jeW1r5G87xklTMlT-27">
          <mxGeometry width="50" height="50" relative="1" as="geometry">
            <mxPoint x="574" y="120" as="sourcePoint" />
            <mxPoint x="624" y="70" as="targetPoint" />
          </mxGeometry>
        </mxCell>
        <mxCell id="yCH_jeW1r5G87xklTMlT-35" value="" style="endArrow=ERmandOne;html=1;rounded=0;fontSize=12;startSize=8;endSize=8;curved=1;entryX=0.5;entryY=1;entryDx=0;entryDy=0;exitX=0.5;exitY=0;exitDx=0;exitDy=0;startArrow=ERzeroToMany;startFill=0;endFill=0;" edge="1" parent="1" source="yCH_jeW1r5G87xklTMlT-29" target="yCH_jeW1r5G87xklTMlT-28">
          <mxGeometry width="50" height="50" relative="1" as="geometry">
            <mxPoint x="922" y="273" as="sourcePoint" />
            <mxPoint x="972" y="223" as="targetPoint" />
          </mxGeometry>
        </mxCell>
        <mxCell id="yCH_jeW1r5G87xklTMlT-38" value="" style="endArrow=ERmandOne;html=1;rounded=0;fontSize=12;startSize=8;endSize=8;curved=0;entryX=0.393;entryY=0.991;entryDx=0;entryDy=0;entryPerimeter=0;startArrow=ERmany;startFill=0;endFill=0;exitX=0;exitY=0.5;exitDx=0;exitDy=0;" edge="1" parent="1" source="yCH_jeW1r5G87xklTMlT-32" target="yCH_jeW1r5G87xklTMlT-26">
          <mxGeometry width="50" height="50" relative="1" as="geometry">
            <mxPoint x="379" y="306" as="sourcePoint" />
            <mxPoint x="505" y="335" as="targetPoint" />
            <Array as="points">
              <mxPoint x="379" y="311" />
            </Array>
          </mxGeometry>
        </mxCell>
      </root>
    </mxGraphModel>
  </diagram>
</mxfile>
